<svg width="136" height="136" viewBox="0 0 136 136" fill="none" xmlns="http://www.w3.org/2000/svg">
  <rect x="1.5" y="1.5" width="133" height="133" rx="66.5" stroke="#DAE2EB" stroke-width="3" stroke-dasharray="8 4"/>
  <path d="M113 70.1774C113 62.6138 108.269 55.9669 101.154 53.4075C101.462 51.8031 101.615 50.1986 101.615 48.556C101.615 34.4601 90.0769 23 75.9231 23C67.6154 23 59.9231 26.9346 55.0769 33.5815C52.6923 31.7479 49.7692 30.7547 46.7308 30.7547C39.1923 30.7547 33.0769 36.8285 33.0769 44.3158C33.0769 45.9584 33.3846 47.5628 33.9231 49.0526C26.8462 51.5739 22 58.3353 22 65.8608C22 73.4626 26.7692 80.1095 33.8846 82.6689C33.5769 84.2351 33.4231 85.8778 33.4231 87.5204C33.4231 101.578 44.9231 113 59.0769 113C67.3846 113 75.0769 109.027 79.8846 102.38C82.2692 104.252 85.1923 105.284 88.2308 105.284C95.7692 105.284 101.885 99.2097 101.885 91.7224C101.885 90.0798 101.577 88.4754 101.038 86.9856C108.115 84.4643 113 77.7029 113 70.1774ZM57.2308 36.2937C61.4231 30.2199 68.3461 26.5908 75.7308 26.5908C88.1154 26.5908 98.1923 36.5993 98.1923 48.8998C98.1923 50.3896 98.0385 51.8413 97.7692 53.2929L77.6923 70.7886L57.7692 61.7733L53.8846 53.5221L57.2308 36.2937ZM47.1538 34.0781C49.5385 34.0781 51.8077 34.8421 53.6923 36.2555L50.6923 51.6503L37.0385 48.4414C36.6154 47.2572 36.3846 46.0348 36.3846 44.736C36.3846 38.8913 41.1923 34.0781 47.1538 34.0781ZM25.5 65.899C25.5 59.5195 29.7308 53.7131 35.8462 51.6885L50.8462 55.2411L54.3462 62.6902L35.1923 79.8803C29.3846 77.6647 25.5 72.1256 25.5 65.899ZM77.8461 99.7445C73.6538 105.895 66.6923 109.524 59.2308 109.524C46.8077 109.524 36.6923 99.4771 36.6923 87.1766C36.6923 85.6486 36.8462 84.1587 37.1154 82.7071L56.6923 65.135L76.6923 74.1885L81.1154 82.5925L77.8461 99.7445ZM87.8461 101.922C85.5 101.922 83.2308 101.158 81.3462 99.7063L84.3077 84.3497L97.9231 87.5204C98.3461 88.7046 98.5769 89.927 98.5769 91.2258C98.6154 97.1469 93.7692 101.922 87.8461 101.922ZM99.1154 84.3115L84.1154 80.8353L80.1154 73.2716L99.7308 56.1961C105.538 58.3735 109.423 63.9126 109.423 70.1392C109.462 76.5187 105.231 82.3251 99.1154 84.3115Z" fill="#DAE2EB"/>
</svg>
